# xmcd
#
# Track frame offsets:
#	150
#	18319
#	39453
#	51765
#	67682
#	84766
#	107561
#	123402
#	139015
#	154669
#	169374
#	182637
#	196852
#
# Disc length: 2935 seconds
#
# Revision: 0
# Processed by: cddbd v1.5.2PL0 Copyright (c) Steve Scherf et al.
# Submitted via: EasyCDDAExtractor 12.0.7.1
#
DISCID=9c0b750d
DTITLE=Francine - One Step Further
DYEAR=2008
DGENRE=Rock and Roll
TTITLE0=Don't Give a Damn
TTITLE1=Rever Grow up
TTITLE2=Feelin' Fine
TTITLE3=Whatever
TTITLE4=Bad Boy
TTITLE5=Last Wish Refused
TTITLE6=Rude
TTITLE7=Through Heaven, Through Hell
TTITLE8=Lost Inside
TTITLE9=You Wanna Have It all
TTITLE10=Drivin' Around
TTITLE11=Little Girl Of Mine
TTITLE12=Bretty Boy
EXTD=
EXTT0=
EXTT1=
EXTT2=
EXTT3=
EXTT4=
EXTT5=
EXTT6=
EXTT7=
EXTT8=
EXTT9=
EXTT10=
EXTT11=
EXTT12=
PLAYORDER=
